# xmcd
#
# Track frame offsets:
#	150
#	16130
#	34032
#	49332
#	61955
#	73097
#	94280
#	108822
#	127832
#	147290
#	161340
#	175345
#	203447
#	222425
#	246080
#
# Disc length: 3570 seconds
#
# Revision: 0
# Processed by: cddbd v1.5PL3 Copyright (c) Steve Scherf et al.
# Submitted via: dBpowerAMP V4.0
#
DISCID=cc0df00f
DTITLE=Arthur "Big Boy" Crudup - Look On Yonder Wall
DYEAR=1900
DGENRE=Blues
TTITLE0=Look On Yonder Wall
TTITLE1=Questionnaire Blues
TTITLE2=Keep Your Hands Off That Woman
TTITLE3=That's All Right
TTITLE4=Rock Me Mama
TTITLE5=Katie May
TTITLE6=Dust My Broom
TTITLE7=Landlord Blues
TTITLE8=Coal Black Mare
TTITLE9=Life Is Just A Gamble
TTITLE10=Walk Out On The Road
TTITLE11=I'm All Alone
TTITLE12=You'll Be Old Before Your Time
TTITLE13=Ramblin' Blues
TTITLE14=When I Lost My Baby (I Almost Lost My Mind)
EXTD=
EXTT0=
EXTT1=
EXTT2=
EXTT3=
EXTT4=
EXTT5=
EXTT6=
EXTT7=
EXTT8=
EXTT9=
EXTT10=
EXTT11=
EXTT12=
EXTT13=
EXTT14=
PLAYORDER=
